<svg xmlns="http://www.w3.org/2000/svg" viewBox="0 0 1700 1270"><defs><style>.cls-1{fill:#e89f40;}.cls-2{fill:#272525;opacity:0.1;}.cls-3{fill:#f2d042;}.cls-4{fill:#ecc192;}.cls-5{fill:#ebceb1;}.cls-6{fill:#eccfb2;}.cls-7{fill:#504e51;}.cls-8{fill:#dab6a5;}.cls-9{fill:#96795d;}.cls-10{fill:#afaead;}.cls-11{fill:#7aa0bb;}.cls-12{fill:#293a53;}.cls-13{fill:#c2c1b3;}.cls-14{fill:#ad6f5e;}</style></defs><title>6391 [Convertido]</title><g id="object"><circle class="cls-1" cx="1178.42" cy="676.38" r="117.33" transform="translate(-133.12 1031.38) rotate(-45)"/><path class="cls-2" d="M1145.91,552.69a127.89,127.89,0,1,0,156.21,91.18A127.9,127.9,0,0,0,1145.91,552.69Zm59.57,226.61a106.41,106.41,0,1,1,75.86-130A106.42,106.42,0,0,1,1205.48,779.3Z"/><path class="cls-3" d="M1142.58,540A141,141,0,1,0,1314.8,640.54,141,141,0,0,0,1142.58,540Zm65.67,249.85a117.32,117.32,0,1,1,83.65-143.29A117.32,117.32,0,0,1,1208.25,789.85Z"/><path class="cls-3" d="M1225.55,671.35q-6.75-5.36-18-6.37a25.83,25.83,0,0,0,7.19-11.77,26.68,26.68,0,0,0-.21-14q-3.93-15-16.58-20t-32.84.23l-4.85,1.27q-1.79-6.76-3.56-13.55c-1.1-4.15-8.61-2.17-7.52,2q1.78,6.78,3.56,13.55l-4.88,1.28q-1.78-6.76-3.56-13.55c-1.1-4.15-8.61-2.18-7.52,2q1.79,6.76,3.56,13.55l-19.72,5.18a6.81,6.81,0,0,0-4.49,3.07,7.29,7.29,0,0,0-.38,5.55q1,3.9,3.52,4.83t9.82-1l3.14-.83,22.56,85.84-3.14.83q-7.91,2.08-9.64,4t-.73,5.74a7.35,7.35,0,0,0,3,4.71,6.88,6.88,0,0,0,5.45.4l20.3-5.33q1.77,6.76,3.56,13.55c1.09,4.15,8.6,2.18,7.51-2q-1.78-6.76-3.56-13.55l4.88-1.28L1186,749.2c1.09,4.15,8.6,2.18,7.51-2q-1.79-6.76-3.56-13.55l2.47-.65,8.2-2.15a87.08,87.08,0,0,0,15.88-5.45,36.46,36.46,0,0,0,9.37-6.59,34.65,34.65,0,0,0,9-14.9A31.13,31.13,0,0,0,1235,687Q1232.31,676.7,1225.55,671.35Zm-54.75-38.78q11-2.91,18.14.07t9.33,11.45q2.36,9-3,15t-18.93,9.55l-3.24.86q-4.61-17.54-9.22-35.07Zm-14.47,3.8,9.21,35.06-4.88,1.29q-4.61-17.54-9.22-35.07ZM1174,723.5q-5.13-19.53-10.27-39.06l4.89-1.29,10.26,39.06Zm40.93-15.6q-6.15,6.45-24.06,11.16l-4.47,1.18q-5.13-19.53-10.27-39.06l5.43-1.43q17.63-4.63,25.81-2T1218.33,691Q1221.09,701.44,1214.94,707.9Z"/><circle class="cls-1" cx="1418.37" cy="340.77" r="149.59" transform="translate(174.47 1102.75) rotate(-45)"/><path class="cls-2" d="M1404.45,178.31a163.06,163.06,0,1,0,176.38,148.54A163,163,0,0,0,1404.45,178.31ZM1430,476a135.67,135.67,0,1,1,123.59-146.76A135.67,135.67,0,0,1,1430,476Z"/><path class="cls-3" d="M1403,161.64a179.79,179.79,0,1,0,30.69,358.26c98.93-8.47,172.26-95.54,163.79-194.48A179.79,179.79,0,0,0,1403,161.64Zm28.11,328.17A149.59,149.59,0,1,1,1567.41,328,149.59,149.59,0,0,1,1431.13,489.81Z"/><path class="cls-3" d="M1478.66,344.7q-7.31-8.19-21.25-11.92a32.89,32.89,0,0,0,11.6-13.22,34.08,34.08,0,0,0,2.78-17.63q-1.68-19.65-16.46-28.78T1414,266.28l-6.38.55q-.75-8.9-1.52-17.8c-.47-5.45-10.34-4.61-9.87.85q.76,8.89,1.52,17.8l-6.41.54-1.53-17.79c-.46-5.46-10.33-4.61-9.87.84l1.53,17.8-25.91,2.22q-4.26.36-6.31,2.87c-1.37,1.68-1.93,4-1.68,6.89q.45,5.13,3.36,6.84t12.56.87l4.13-.35,9.66,112.75-4.13.36q-10.39.89-13,2.94c-1.73,1.36-2.45,3.72-2.16,7.05.25,3,1.18,5.2,2.76,6.57s3.84,1.94,6.77,1.69l26.65-2.28,1.53,17.8c.47,5.45,10.34,4.61,9.87-.85l-1.53-17.8,6.42-.55q.77,8.91,1.52,17.8c.47,5.46,10.34,4.61,9.87-.84q-.75-8.91-1.52-17.8l3.25-.28,10.76-.92q13.77-1.19,21.14-3.39a46.38,46.38,0,0,0,13.21-6.24,44.14,44.14,0,0,0,14.57-16.75,39.65,39.65,0,0,0,3.85-21.26Q1486,352.9,1478.66,344.7Zm-60.34-60.63q14.52-1.24,22.78,4t9.23,16.42q1,11.76-7.09,18.13t-25.85,7.89l-4.26.36q-2-23-3.94-46Zm-19,1.63q2,23,3.94,46.05l-6.41.55q-2-23-3.95-46.05Zm3.24,113.3q-2.19-25.65-4.39-51.31l6.41-.55q2.2,25.65,4.4,51.31Zm54.82-10.69q-9.14,6.78-32.65,8.79l-5.88.5q-2.2-25.65-4.4-51.3l7.13-.61q23.14-2,32.86,3.11t10.89,19Q1466.5,381.55,1457.38,388.31Z"/><polygon class="cls-4" points="526 738 548 661 582 635 608 646 629 666 620 755 596 769 526 738"/><polygon class="cls-5" points="301.88 617.7 299 538 267 514 235 520 218 624 235 651 258 648 301.88 617.7"/><path class="cls-5" d="M282.2,967.85C280.32,945.38,274.66,659.36,279,651c6-11.51,28.36-34.09,29.19-35.66l-3.89-19.68-65,32.06s-27.51-31.43-27.23-30.61l-.35-.14,36.17-16.38L235,566.08l-50.18,12-4.39,21.11,6,28.23,18.11,27.93c3.38,5.2,8.08,9.9,10.2,15.73,3.22,8.88-42.65,271-44.36,318.32Z"/><polygon class="cls-4" points="658.8 722.25 655.21 696.64 599.4 682.64 596.4 701.15 620 719 600 751 539 719 526.02 737.99 549.46 792.33 542.5 873.62 623 883 620.57 793.9 661.89 744.28 658.8 722.25"/><path class="cls-6" d="M1235,1173l-29-255.62,31.38-80.72c-4.4-16-7.86-32.26-12.9-48.07-1.78-5.57-2.25-7.16-7.44-8.81-3.25-1-6.5-2.11-9.75-3.16l-51.17-16.53c-.63-.21-10.57-3.79-10.75-3.48-4.39,7.77-9.75,15.45-13.4,23.5-3.77,8.33-7.07,16.89-10.54,25.35-1.88,4.65-3.08,7.27-2.43,11.93.68,4.88,10.63,54.5,12.37,64.73l20.78,28.48L1141,1166Z"/><path class="cls-7" d="M1148,914.59s34.81,16.23,61.71,5.28l1.24,10.25s-27.93,18.8-65.34,1.19Z"/><path class="cls-8" d="M1499.63,589.75l12.87-36.39,7.39-15.65-27.79-55.08-11,6.63L1481,489l-18.69-1L1453,501l-7.85-2.16-17.82,3.48L1424,505l-4.55-2-13,8.41L1413,524l1.27,1.93-1.73,49.65,4.08,14L1432,610.7l7.64,299L1529,882l-32.26-280.71Z"/><polygon class="cls-5" points="1119.47 820.33 1118 810 1134 759 1147 755 1156 763 1149 819 1162 853 1147 870 1119.47 820.33"/><polygon class="cls-8" points="1499.85 506.76 1481.83 450.31 1466.88 451.47 1459.75 463.06 1474.67 526.09 1483.54 555.33 1518.62 534.95 1499.85 506.76"/><circle class="cls-1" cx="281.99" cy="395.96" r="173.48" transform="translate(-197.39 315.37) rotate(-45)"/><path class="cls-2" d="M189,231.28C98.08,282.63,66,398,117.31,488.92S284,612,375,560.63,498,393.94,446.66,303,280,179.94,189,231.28ZM359.34,533A157.34,157.34,0,1,1,419,318.61,157.35,157.35,0,0,1,359.34,533Z"/><path class="cls-3" d="M179.49,214.39C79.21,271,43.81,398.18,100.42,498.46s183.79,135.67,284.07,79.06,135.67-183.79,79.06-284.06S279.76,157.78,179.49,214.39ZM367.27,547a173.48,173.48,0,1,1,65.78-236.36A173.48,173.48,0,0,1,367.27,547Z"/><path class="cls-3" d="M347.49,371.05q-11.67-5.12-28.16-2.34a38.23,38.23,0,0,0,5.86-19.53,39.46,39.46,0,0,0-5.57-19.94q-11.24-19.92-31.23-22.43t-46.87,12.66l-6.47,3.65-10.19-18c-3.12-5.53-13.12.12-10,5.65l10.19,18-6.51,3.67q-5.08-9-10.18-18c-3.12-5.53-13.13.12-10,5.65l10.19,18-26.26,14.82c-2.88,1.63-4.63,3.65-5.27,6.08s-.12,5.11,1.55,8.07q2.94,5.2,6.83,5.59t13.67-5.12l4.19-2.37,64.52,114.29-4.19,2.36q-10.53,6-12.28,9.36t1.11,8.49q2.58,4.56,6.09,5.6t7.94-1.48l27-15.25,10.19,18c3.12,5.53,13.12-.12,10-5.65l-10.18-18,6.5-3.67,10.19,18c3.12,5.53,13.12-.12,10-5.65l-10.18-18,3.29-1.86,10.91-6.16q13.95-7.87,20.67-13.76a54.05,54.05,0,0,0,10.92-12.94,51.18,51.18,0,0,0,7.3-24.69,46.06,46.06,0,0,0-6.17-24.28Q359.16,376.16,347.49,371.05Zm-92.87-34.89q14.72-8.3,26-6.72t17.64,12.88q6.72,11.93,1.26,22.53T276,385.63l-4.31,2.44-26.35-46.68ZM235.36,347q13.17,23.34,26.35,46.68l-6.5,3.67-26.36-46.68Zm58,118L264,413l6.51-3.67,29.36,52Zm52.68-37.68q-6.36,11.55-30.21,25l-6,3.37-29.36-52,7.23-4.08Q311.21,386.35,323.9,387t20.64,14.78Q352.42,415.77,346.05,427.31Z"/><path class="cls-5" d="M189.4,632c4.26-4.21,10.12-7.49,14.42-10.16,4.07-2.53,8.41-4.78,12.3-7.58a84.63,84.63,0,0,0,6.54-5.48c-5.72-6.47-10.68-12-10.56-11.67l-.35-.14,36.17-16.38L235,566.08l-50.18,12-4.39,21.11,6,28.23Z"/><circle class="cls-1" cx="922.75" cy="298.01" r="179.62" transform="translate(59.54 739.77) rotate(-45)"/><path class="cls-2" d="M980.71,111c-103.29-32-213,25.77-245,129.06S761.5,453,864.79,485s213-25.78,245-129.07S1084,143,980.71,111ZM874.53,453.62a162.91,162.91,0,1,1,203.83-107.38A162.9,162.9,0,0,1,874.53,453.62Z"/><path class="cls-3" d="M986.65,91.8C872.77,56.51,751.83,120.22,716.54,234.11S745,468.93,858.85,504.22,1093.67,475.8,1129,361.92,1100.54,127.1,986.65,91.8ZM869.58,469.58a179.61,179.61,0,0,1-118.4-224.74c29.36-94.75,130-147.76,224.74-118.4s147.77,130,118.4,224.74A179.61,179.61,0,0,1,869.58,469.58Z"/><path class="cls-3" d="M988.05,329.64q-4.42-12.42-18.25-22.87a39.5,39.5,0,0,0,18.88-9.46A40.91,40.91,0,0,0,999.74,279q7-22.62-5.3-39.46t-42.85-26.3l-7.34-2.28q3.18-10.24,6.35-20.49c1.94-6.28-9.42-9.8-11.36-3.52q-3.18,10.24-6.35,20.49l-7.39-2.29q3.18-10.24,6.35-20.49c1.95-6.28-9.41-9.8-11.36-3.52q-3.18,10.24-6.35,20.49l-29.82-9.24q-4.91-1.51-8.32.34t-5,6.91q-1.83,5.91.65,9.12t13.57,6.65l4.75,1.47-40.22,129.8L845,345.16q-12-3.71-15.77-2.6t-5.6,6.87c-1.08,3.45-1,6.31.11,8.56s3.39,3.89,6.75,4.93l30.69,9.51q-3.16,10.24-6.35,20.49c-1.94,6.28,9.42,9.8,11.36,3.52q3.18-10.24,6.35-20.49l7.39,2.29q-3.18,10.25-6.35,20.49c-2,6.28,9.41,9.8,11.36,3.52q3.18-10.25,6.35-20.49l3.74,1.16,12.39,3.84q15.86,4.92,25.05,5.79a55.74,55.74,0,0,0,17.51-1,53.06,53.06,0,0,0,23.79-12.05,47.74,47.74,0,0,0,13.89-21.9Q992.5,342.08,988.05,329.64Zm-39.72-94.73q16.71,5.18,23.52,14.79t2.84,22.44q-4.2,13.53-16.07,17t-32.33-2.91l-4.9-1.52q8.22-26.51,16.43-53Zm-21.87-6.78q-8.22,26.51-16.43,53l-7.39-2.29q8.22-26.51,16.43-53ZM878.85,355.64l18.3-59.06,7.39,2.29q-9.15,29.53-18.31,59.06Zm65.81,12.9q-13.21,3.4-40.3-5l-6.76-2.1,18.3-59.06,8.21,2.54q26.64,8.26,35.14,18.31t3.53,26.05Q957.88,365.13,944.66,368.54Z"/><polygon class="cls-9" points="864.74 638.71 869.85 564.66 831.13 501.81 833.85 462.9 892.22 430.89 905.58 454.88 867.16 495.5 905 415 981 434 981.42 517.32 945.9 581 948.07 650.32 864.09 661.49 864.74 638.71"/><path class="cls-9" d="M892.22,430.89l13.36,24L867.16,495.5l7.92,5.59c-6.9,6.12-14.36,11.58-21.33,17.63-2.66,2.31-5.14,4.87-7.62,7.43l-15-24.34,2.72-38.91Z"/><circle class="cls-1" cx="618.06" cy="576.11" r="128.45" transform="translate(-226.35 605.77) rotate(-45)"/><path class="cls-2" d="M674.75,448.08A140,140,0,1,0,746.08,632.8,140,140,0,0,0,674.75,448.08ZM570.89,682.64a116.5,116.5,0,1,1,153.69-59.36A116.51,116.51,0,0,1,570.89,682.64Z"/><path class="cls-3" d="M680.56,435a154.38,154.38,0,1,0,78.66,203.67A154.39,154.39,0,0,0,680.56,435ZM566.05,693.56a128.45,128.45,0,1,1,169.46-65.44A128.45,128.45,0,0,1,566.05,693.56Z"/><path class="cls-3" d="M661.81,604q-2.12-9.19-11.06-17.76a28.38,28.38,0,0,0,14.19-5.15A29.3,29.3,0,0,0,674.32,569q6.85-15.48-.49-28.46t-28.25-22.24l-5-2.23,6.21-14c1.9-4.3-5.88-7.74-7.78-3.44l-6.21,14-5.06-2.23,6.21-14c1.91-4.3-5.87-7.74-7.77-3.44l-6.22,14-20.41-9a7.45,7.45,0,0,0-5.94-.44,7.92,7.92,0,0,0-4.11,4.49q-1.79,4-.3,6.53t9.09,5.85l3.26,1.44-39.35,88.85-3.25-1.44c-5.46-2.41-9.12-3.47-11-3.15s-3.39,1.78-4.55,4.41q-1.57,3.55-.63,6.09t4.39,4.07l21,9.3-6.21,14c-1.9,4.3,5.88,7.74,7.78,3.44l6.21-14,5.06,2.23-6.21,14c-1.91,4.3,5.87,7.74,7.77,3.44q3.11-7,6.22-14l2.56,1.13,8.48,3.76q10.85,4.8,17.31,6.19a39.92,39.92,0,0,0,12.52.76,37.86,37.86,0,0,0,17.89-6.58,34.13,34.13,0,0,0,11.69-14.41Q663.93,613.2,661.81,604Zm-20.35-70.58q11.44,5.05,15.48,12.45T657.1,562q-4.11,9.27-12.83,10.72T621.55,568l-3.35-1.48q8-18.15,16.07-36.29Zm-15-6.63q-8,18.13-16.07,36.29l-5.06-2.24,16.07-36.29Zm-44.4,86.61L600,573l5.06,2.24-17.91,40.43ZM627.76,628q-9.66,1.32-28.21-6.89l-4.63-2,17.91-40.43,5.61,2.49q18.25,8.07,23.45,15.92t.34,18.79Q637.43,626.71,627.76,628Z"/><path class="cls-4" d="M612.51,731c12.89,8.79,22.37,21.57,33.9,31.88l15.48-18.58-3.09-22-3.59-25.61-55.81-14-3,18.52L620,719Z"/><polygon class="cls-10" points="1233 1030 1133 1030 1118 1270 1269 1270 1233 1030"/><polygon class="cls-11" points="343 1270 146 1270 125.59 1164.68 199.15 720.09 289 747 298.29 1166.91 343 1270"/><polygon class="cls-12" points="633.08 903.8 530 889 484.13 1270 671.59 1270.8 633.08 903.8"/><polygon class="cls-13" points="966 623 846 609 800 1270 1021 1270 966 623"/><polygon class="cls-14" points="1533 1270 1345 1270 1421 939.12 1422.25 866.04 1542.35 869.59 1552 951 1533 1270"/><polygon class="cls-12" points="535 897 542 816 629 824 629 912 535 897"/><polygon class="cls-14" points="1395 888 1568 883 1555 792 1400 796 1395 888"/><polygon class="cls-10" points="1140 1041 1140 967 1150.22 954.17 1218 958 1223 969 1230 1041 1178 1051 1140 1041"/></g></svg>